<svg width="30" height="30" viewBox="0 0 30 30" fill="none" xmlns="http://www.w3.org/2000/svg">
<g clip-path="url(#clip0_41_21)">
<path fill-rule="evenodd" clip-rule="evenodd" d="M10.325 1.61125L8.37001 2.57625C1.12876 6.35125 11.8675 28.7562 20.0075 28.7562C20.5825 28.7562 21.1375 28.6388 21.6538 28.4013L23.5813 27.4575L19.9588 20.465L18.0338 21.4075C17.8075 21.5162 17.5538 21.575 17.2875 21.575C14.0863 21.575 8.73626 11.32 11.9863 9.58L13.9188 8.62625L10.325 1.61125V1.61125ZM20.0075 30C12.9075 30 4.73126 16.1075 4.73126 7.71C4.73126 4.68625 5.77251 2.5275 7.80251 1.47L10.78 0L15.6013 9.18375L12.555 10.685C10.7563 11.65 15.5663 21.215 17.5 20.285L20.4988 18.8112L25.2688 28.0113C25.2688 28.0113 22.3188 29.4638 22.1738 29.53C21.49 29.8438 20.7625 30 20.0075 30" fill="#EDECEC"/>
</g>
<defs>
<clipPath id="clip0_41_21">
<rect width="30" height="30" fill="white"/>
</clipPath>
</defs>
</svg>
